HIERARCHY
ROOT Hips
{
	OFFSET 0.000000 0.000000 0.000000
	CHANNELS 6 Xposition Yposition Zposition Zrotation Yrotation Xrotation 
	JOINT LeftUpLeg_virtual
	{
		OFFSET 0.000000 0.000000 0.000000
		CHANNELS 3 Zrotation Yrotation Xrotation
		JOINT LeftUpLeg
		{
			OFFSET 8.479694 -4.795517 -0.379053
			CHANNELS 3 Zrotation Yrotation Xrotation
			JOINT LeftLeg
			{
				OFFSET 0.485052 -32.551468 0.112863
				CHANNELS 3 Zrotation Yrotation Xrotation
				JOINT LeftFoot
				{
					OFFSET 0.438033 -32.635670 -3.012641
					CHANNELS 3 Zrotation Yrotation Xrotation
					JOINT LeftToeBase
					{
						OFFSET 0.970169 -13.225353 11.864223
						CHANNELS 3 Zrotation Yrotation Xrotation
						End Site
						{
							OFFSET 0.000000 0.000000 0.000000
						}
					}
				}
			}
		}
	}
	JOINT RightUpLeg_virtual
	{
		OFFSET 0.000000 0.000000 0.000000
		CHANNELS 3 Zrotation Yrotation Xrotation
		JOINT RightUpLeg
		{
			OFFSET -8.479694 -4.795517 -0.379053
			CHANNELS 3 Zrotation Yrotation Xrotation
			JOINT RightLeg
			{
				OFFSET -0.484100 -32.551483 0.112903
				CHANNELS 3 Zrotation Yrotation Xrotation
				JOINT RightFoot
				{
					OFFSET -0.438985 -32.635651 -3.012681
					CHANNELS 3 Zrotation Yrotation Xrotation
					JOINT RightToeBase
					{
						OFFSET -0.970169 -13.225354 11.864223
						CHANNELS 3 Zrotation Yrotation Xrotation
						End Site
						{
							OFFSET 0.000000 0.000000 0.000000
						}
					}
				}
			}
		}
	}
	JOINT Spine_virtual
	{
		OFFSET 0.000000 0.000000 0.000000
		CHANNELS 3 Zrotation Yrotation Xrotation
		JOINT Spine
		{
			OFFSET 0.000000 7.722015 1.166203
			CHANNELS 3 Zrotation Yrotation Xrotation
			JOINT Spine1
			{
				OFFSET 0.000000 12.024086 0.248766
				CHANNELS 3 Zrotation Yrotation Xrotation
				JOINT Spine2
				{
					OFFSET -0.000000 11.503036 -0.491240
					CHANNELS 3 Zrotation Yrotation Xrotation
					JOINT Neck_virtual
					{
						OFFSET 0.000000 0.000000 0.000000
						CHANNELS 3 Zrotation Yrotation Xrotation
						JOINT Neck
						{
							OFFSET 0.000000 18.430687 -3.123054
							CHANNELS 3 Zrotation Yrotation Xrotation
							JOINT Head
							{
								OFFSET -0.000000 9.051071 1.034021
								CHANNELS 3 Zrotation Yrotation Xrotation
								End Site
								{
									OFFSET 0.000000 0.000000 0.000000
								}
							}
						}
					}
					JOINT LeftShoulder_virtual
					{
						OFFSET 0.000000 0.000000 0.000000
						CHANNELS 3 Zrotation Yrotation Xrotation
						JOINT LeftShoulder
						{
							OFFSET 6.197824 13.665230 -4.064723
							CHANNELS 3 Zrotation Yrotation Xrotation
							JOINT LeftArm
							{
								OFFSET 7.778132 -0.187073 -1.709282
								CHANNELS 3 Zrotation Yrotation Xrotation
								JOINT LeftForeArm
								{
									OFFSET 21.954697 0.000000 -2.041093
									CHANNELS 3 Zrotation Yrotation Xrotation
									JOINT LeftHand
									{
										OFFSET 22.992908 0.000000 -0.870901
										CHANNELS 3 Zrotation Yrotation Xrotation
										End Site
										{
											OFFSET 0.000000 0.000000 0.000000
										}
									}
								}
							}
						}
					}
					JOINT RightShoulder_virtual
					{
						OFFSET 0.000000 0.000000 0.000000
						CHANNELS 3 Zrotation Yrotation Xrotation
						JOINT RightShoulder
						{
							OFFSET -6.197824 13.665230 -4.064723
							CHANNELS 3 Zrotation Yrotation Xrotation
							JOINT RightArm
							{
								OFFSET -7.778132 -0.187073 -1.709282
								CHANNELS 3 Zrotation Yrotation Xrotation
								JOINT RightForeArm
								{
									OFFSET -21.954697 0.000000 -2.041093
									CHANNELS 3 Zrotation Yrotation Xrotation
									JOINT RightHand
									{
										OFFSET -22.992908 0.000000 -0.870901
										CHANNELS 3 Zrotation Yrotation Xrotation
										End Site
										{
											OFFSET 0.000000 0.000000 0.000000
										}
									}
								}
							}
						}
					}
				}
			}
		}
	}
}
MOTION
Frames: 5
Frame Time: 0.033333
0.796831 78.661079 14.050679 -179.946852 5.387389 -179.980976 -3.906691 0.764433 10.714715 0.094045 3.238128 -33.197602 8.077867 2.886995 33.297794 -4.274726 -6.993868 -16.433169 0.000000 0.000000 0.000000 0.482853 -0.088477 10.439622 -1.691301 8.181714 -34.998098 -0.424030 4.134894 37.761391 8.184615 2.068630 -14.919643 0.000000 0.000000 0.000000 2.319029 1.979854 -4.318367 -0.121950 -1.036213 -0.412467 0.053774 -1.855419 10.493217 0.024687 -0.010330 0.001618 -0.404888 -0.509249 11.874094 0.855504 -4.278920 -3.903693 0.000000 0.000000 0.000000 0.867727 0.218014 8.776517 -13.343524 -7.110588 1.405424 -60.137411 -8.317773 0.002120 -0.641731 -13.422110 4.764351 0.000000 0.000000 0.000000 -3.179604 1.892091 7.822766 19.026189 -0.784233 0.868773 56.460543 -9.691851 9.759661 -161.947596 67.606449 -166.449893 0.000000 0.000000 0.000000 
0.718554 78.659332 14.232506 -179.984050 5.435321 -179.985634 -3.899343 0.843393 10.704304 -0.034602 3.267372 -33.184887 7.956021 3.156170 33.411971 -4.356585 -7.245940 -17.282791 0.000000 0.000000 0.000000 0.501838 -0.117015 10.416542 -1.572465 7.961528 -34.979076 -0.502886 4.020968 37.778466 7.959535 1.786650 -14.883592 0.000000 0.000000 0.000000 2.347216 1.941250 -4.262529 -0.153698 -1.075665 -0.286080 0.051590 -1.857807 10.441708 0.020209 -0.012878 0.031746 -0.372160 -0.466963 11.812828 0.913532 -4.406553 -3.963890 0.000000 0.000000 0.000000 0.876405 0.218176 8.769903 -13.518736 -7.152390 1.453927 -60.332475 -8.169136 0.082108 -0.617761 -13.088437 4.755879 0.000000 0.000000 0.000000 -3.132923 1.894115 7.794857 19.156517 -0.693035 0.790935 56.669598 -9.644837 10.452758 -162.107628 67.921314 -166.609023 0.000000 0.000000 0.000000 
0.580136 78.653183 14.483136 179.966551 5.662521 -179.978831 -3.873122 0.752846 10.632986 -0.127708 3.142937 -33.110633 7.920452 3.416088 33.106951 -4.160624 -7.107578 -17.154775 0.000000 0.000000 0.000000 0.561058 -0.215374 10.373058 -1.855768 8.370755 -35.113845 -0.525659 4.204218 37.523523 8.035675 1.681208 -14.694237 0.000000 0.000000 0.000000 2.436668 1.886120 -4.111357 -0.265292 -1.139918 -0.196252 -0.001378 -1.875425 10.411445 -0.018779 -0.040067 0.060837 -0.296652 -0.406823 11.745166 0.975613 -4.143115 -4.141809 0.000000 0.000000 0.000000 0.934880 0.201419 8.763391 -13.638985 -7.218033 1.502855 -60.607848 -8.033715 0.293328 -0.542977 -12.697706 4.611423 0.000000 0.000000 0.000000 -3.072238 1.911973 7.729487 19.471775 -0.585816 0.969785 57.098589 -9.114432 11.116369 -161.397507 68.754692 -165.937602 0.000000 0.000000 0.000000 
0.423088 78.637009 14.749732 -179.993953 6.241473 -179.977069 -3.766563 0.811740 10.622882 -0.301514 3.214980 -33.063529 7.848686 3.516685 32.688018 -3.878910 -6.873602 -17.039799 0.000000 0.000000 0.000000 0.606098 -0.226017 10.338115 -2.236398 9.224897 -35.244118 -0.697431 4.105569 37.260991 8.277278 1.682513 -14.485967 0.000000 0.000000 0.000000 2.599727 1.889600 -3.875876 -0.351598 -1.184056 -0.077852 0.026187 -1.871538 10.342753 -0.001231 -0.044100 -0.011084 -0.305846 -0.427147 11.781229 1.024156 -4.149589 -4.412216 0.000000 0.000000 0.000000 0.922450 0.202734 8.780249 -13.840577 -7.258203 1.625914 -60.902393 -8.007038 0.501365 -0.520870 -12.474150 4.672885 0.000000 0.000000 0.000000 -3.080775 1.930186 7.718530 19.856798 -0.595483 1.146737 57.682983 -8.424033 11.718015 -160.520579 69.747378 -165.176404 0.000000 0.000000 0.000000 
0.248202 78.630623 14.975981 -179.960144 6.897577 -179.973149 -3.534819 0.878691 10.485286 -0.537866 3.241593 -32.843668 7.803693 3.900790 32.338487 -3.676541 -6.729368 -16.967566 0.000000 0.000000 0.000000 0.815817 -0.257984 10.283510 -2.681392 9.879923 -35.398398 -0.760991 4.220254 37.038296 8.556466 1.629432 -14.297493 0.000000 0.000000 0.000000 2.762421 1.987442 -3.532633 -0.464333 -1.242966 -0.023193 0.049679 -1.798326 10.296631 0.015650 -0.126994 0.017210 -0.314158 -0.500731 11.693852 1.089835 -3.796997 -4.729181 0.000000 0.000000 0.000000 0.914289 0.105268 8.692482 -14.001573 -7.346676 1.778427 -60.997858 -8.108870 0.624142 -0.450552 -12.519977 4.649592 0.000000 0.000000 0.000000 -3.090099 1.828714 7.593840 20.268783 -0.742821 1.248168 57.985943 -7.947244 12.221275 -159.677966 70.622619 -164.413117 0.000000 0.000000 0.000000 
